<?xml version="1.0" standalone="no"?>
<!DOCTYPE svg PUBLIC "-//W3C//DTD SVG 20010904//EN"
 "http://www.w3.org/TR/2001/REC-SVG-20010904/DTD/svg10.dtd">
<svg version="1.0" xmlns="http://www.w3.org/2000/svg"
 width="2472.000000pt" height="2194.000000pt" viewBox="0 0 2472.000000 2194.000000"
 preserveAspectRatio="xMidYMid meet">
<metadata>
Created by potrace 1.16, written by Peter Selinger 2001-2019
</metadata>
<g transform="translate(0.000000,2194.000000) scale(0.100000,-0.100000)"
fill="#000000" stroke="none">
<path d="M20704 17676 c-32 -24 -297 -218 -589 -432 -1327 -972 -2465 -1815
-2465 -1826 0 -4 48 13 108 38 276 118 392 147 392 98 0 -8 -34 -150 -75 -317
-41 -166 -75 -309 -75 -318 0 -9 7 -20 16 -23 9 -4 159 -9 333 -12 350 -5 411
-9 436 -28 16 -11 16 -15 2 -42 -9 -16 -52 -69 -96 -119 -128 -143 -118 -140
136 43 525 377 826 607 820 625 -7 21 -85 26 -480 26 l-387 1 6 28 c4 15 32
128 64 252 l57 225 264 6 c145 4 364 7 487 8 122 0 222 3 222 5 0 2 20 90 45
195 25 105 45 206 45 224 0 72 -58 86 -350 88 -107 1 -253 4 -325 8 l-129 6
254 196 c140 107 261 199 267 203 7 4 142 13 299 21 158 8 290 18 294 22 4 4
21 51 39 103 64 187 175 383 322 565 107 133 132 166 127 170 -2 3 -31 -15
-64 -39z"/>
<path d="M5095 17529 c-170 -8 -359 -24 -416 -36 -36 -7 -106 -73 -168 -157
l-43 -58 6 -2042 c4 -1122 11 -2473 16 -3001 11 -1168 -11 -1037 218 -1282
332 -357 1602 -1619 1694 -1684 19 -14 28 -16 28 -7 0 7 -395 406 -877 887
-483 480 -826 827 -763 770 132 -120 1703 -1681 1731 -1721 19 -26 19 -26 -1
-21 -32 9 -24 -19 18 -59 46 -44 77 -61 101 -53 11 3 26 -1 35 -10 20 -20 20
-26 1 -19 -8 4 -15 1 -15 -5 0 -16 328 -347 336 -339 3 4 -3 20 -15 36 -40 56
-18 58 42 3 55 -50 77 -61 126 -61 34 0 41 -3 41 -20 0 -22 -34 -40 -76 -40
-35 0 -30 -22 16 -64 43 -39 64 -45 74 -20 11 30 25 637 31 1376 l6 747 -52
103 c-65 130 -113 201 -175 258 -105 98 -184 140 -402 214 -241 82 -322 129
-361 209 -27 55 -27 117 0 202 53 171 247 262 435 204 22 -7 181 -163 533
-523 460 -470 642 -648 599 -587 -9 12 -139 151 -290 307 -281 293 -383 404
-400 439 -19 40 446 -440 2047 -2110 1373 -1433 1798 -1865 1929 -1962 67 -49
90 -52 197 -26 38 9 72 14 75 10 12 -11 -19 -49 -51 -63 -40 -16 -124 -18
-177 -4 -48 14 -113 63 -271 207 -71 65 -134 120 -140 122 -19 6 223 -236 290
-290 86 -70 167 -109 224 -109 56 0 108 34 169 111 43 55 53 81 48 125 -2 23
-7 29 -25 27 -32 -4 -30 27 7 129 49 134 53 224 45 1112 l-7 788 -122 232
c-119 228 -121 232 -121 297 0 59 5 76 50 165 28 54 51 104 53 109 2 6 -31
-26 -74 -70 l-76 -80 26 53 c83 164 292 266 404 195 12 -7 20 -18 17 -24 -4
-5 11 -24 31 -42 113 -95 149 -163 148 -277 -1 -94 -27 -156 -115 -273 -127
-168 -124 -145 -124 -972 0 -374 4 -833 9 -1020 12 -506 -1 -548 -218 -709
-35 -26 -38 -32 -32 -64 7 -44 20 -59 39 -44 21 18 71 -25 179 -153 355 -420
545 -521 1063 -564 589 -50 2055 -38 2690 20 163 15 259 45 467 145 177 85
249 106 153 45 -75 -47 -300 -156 -387 -186 -43 -15 -78 -32 -78 -36 0 -17 95
-8 160 14 62 21 127 56 250 133 68 42 107 54 187 54 171 0 313 -129 313 -285
-1 -108 -61 -195 -176 -251 -50 -25 -71 -29 -139 -29 -87 0 -118 12 -311 120
-150 84 -269 102 -749 115 -415 11 -2337 -4 -2509 -20 -122 -11 -182 -28 -192
-53 -7 -19 21 -87 36 -87 6 0 13 7 16 15 10 24 38 17 70 -16 16 -17 49 -41 73
-53 39 -18 45 -27 56 -68 6 -26 18 -55 26 -64 12 -16 12 -17 -1 -9 -8 4 -30
19 -48 32 -18 14 -36 22 -39 19 -26 -26 692 -793 796 -849 84 -46 163 -49
1181 -50 1110 0 1195 5 1298 77 39 27 157 154 150 161 -2 2 -31 -14 -63 -36
-93 -64 -298 -161 -334 -159 -13 1 37 33 85 55 29 13 99 53 158 89 143 91 203
116 272 116 104 0 225 -42 274 -95 l25 -26 -65 30 c-65 31 -94 32 -51 2 138
-96 222 -262 178 -348 -45 -86 -189 -185 -295 -202 -92 -14 -143 1 -347 103
-104 52 -215 102 -245 112 -86 26 -298 28 -944 10 -866 -25 -949 -29 -980 -49
-36 -24 -34 -63 6 -118 30 -41 32 -42 37 -21 6 21 12 17 91 -54 47 -42 146
-136 220 -208 154 -150 216 -206 230 -206 22 0 7 46 -34 104 -24 34 -109 132
-189 217 -79 84 -156 168 -170 185 l-27 31 105 5 c58 3 333 1 613 -3 279 -4
649 -8 822 -9 l315 -1 90 -80 c60 -53 118 -94 173 -121 72 -37 93 -42 167 -46
167 -9 330 73 395 199 31 60 52 159 48 229 -3 54 -12 83 -55 171 -60 122 -124
197 -198 231 -44 20 -65 23 -185 23 -158 0 -151 2 -330 -123 -63 -45 -134 -91
-158 -102 -134 -68 -579 -99 -1388 -100 l-392 0 -143 66 c-186 84 -286 139
-428 235 -276 184 -473 387 -634 652 l-38 62 28 6 c46 11 1003 10 2043 -2
l975 -10 117 -80 c177 -120 212 -134 333 -134 78 0 115 6 168 24 155 53 278
177 302 303 17 90 -54 258 -150 354 -102 103 -222 150 -359 142 -94 -6 -131
-20 -236 -87 -42 -27 -93 -56 -113 -65 -131 -54 -331 -63 -1637 -71 -1233 -7
-1575 3 -1765 51 -184 46 -454 235 -570 399 -57 80 -125 218 -125 252 0 30 63
133 81 133 12 0 6 -22 -22 -84 -24 -54 -9 -70 30 -32 16 16 40 51 53 80 l23
51 -3 990 c-4 1034 -1 1124 39 1275 11 42 57 151 106 248 79 159 86 178 91
245 9 148 -49 290 -167 408 -66 65 -88 81 -164 112 -49 20 -96 37 -104 37 -8
0 -56 -21 -106 -47 -182 -93 -258 -210 -282 -431 -10 -94 7 -146 101 -302 46
-76 84 -143 84 -149 0 -5 8 -14 17 -20 15 -8 18 -37 24 -238 10 -324 10 -1208
-1 -1602 -6 -259 -11 -336 -22 -343 -16 -11 -82 -2 -117 16 -99 52 -701 658
-1841 1851 -968 1014 -2329 2393 -2456 2488 -88 66 -170 112 -244 137 -95 32
-231 26 -313 -15 -103 -51 -176 -153 -197 -277 -23 -129 22 -256 132 -373 74
-80 127 -108 239 -130 248 -47 297 -66 375 -137 26 -24 69 -76 97 -117 27 -41
62 -87 77 -102 36 -38 37 -53 51 -734 16 -765 5 -1240 -31 -1278 -9 -10 -2001
1976 -2250 2243 -99 107 -188 213 -211 251 l-39 65 0 2985 c0 1641 3 2994 6
3006 8 29 64 46 229 73 234 37 361 45 745 45 362 0 380 -1 536 -28 165 -28
242 -34 214 -18 -8 5 -109 30 -225 56 -115 26 -212 49 -215 52 -12 14 185 -9
280 -32 160 -39 225 -62 345 -121 84 -42 127 -57 179 -64 75 -9 86 -14 67 -33
-7 -7 -49 -13 -106 -15 -52 -2 -95 -7 -95 -11 0 -4 33 -19 72 -35 53 -20 84
-27 114 -23 55 6 154 52 154 71 0 47 -348 211 -573 271 -51 14 -144 29 -207
35 -132 11 -763 11 -1015 -1z m9669 -11406 c190 -4 283 -10 277 -16 -7 -7
-281 -12 -758 -15 -767 -5 -1371 4 -1356 19 5 5 85 10 178 12 371 6 1388 7
1659 0z"/>
<path d="M22585 17284 c-483 -347 -645 -475 -645 -513 0 -5 15 -40 33 -77 32
-68 32 -71 31 -214 0 -119 -5 -166 -27 -260 -73 -324 -168 -524 -312 -658
-112 -105 -249 -159 -432 -169 -84 -5 -107 -3 -127 10 -15 10 -23 23 -20 34 2
10 42 176 90 368 114 463 125 515 111 515 -21 0 -521 -366 -678 -496 -41 -34
-87 -80 -102 -101 -20 -29 -50 -131 -127 -434 -55 -217 -100 -398 -100 -402 0
-4 101 -7 224 -7 244 0 316 -6 316 -25 0 -7 -36 -54 -81 -105 -44 -50 -78 -94
-75 -97 6 -6 130 83 931 667 314 229 676 493 806 587 l235 172 25 143 c27 163
32 372 10 473 -7 33 -33 113 -57 178 -78 208 -69 234 159 492 65 74 87 105 75
105 -2 0 -120 -84 -263 -186z"/>
<path d="M21003 17381 c-50 -4 -95 -9 -98 -13 -10 -9 -28 -78 -135 -488 -109
-422 -161 -594 -206 -685 -163 -323 -487 -630 -1287 -1218 -463 -339 -687
-509 -687 -519 0 -10 7 -6 190 107 166 103 283 168 401 224 177 84 179 84 411
89 l206 4 17 76 c49 232 114 389 208 502 65 79 122 124 570 453 194 141 405
296 470 344 154 113 236 189 270 250 14 28 44 114 66 192 21 78 47 151 56 161
15 17 32 20 106 20 156 0 173 -28 83 -135 -30 -36 -54 -70 -52 -76 2 -6 60 29
128 77 170 118 582 426 598 447 8 9 10 21 6 28 -19 32 -250 116 -379 138 -138
24 -706 37 -942 22z"/>
<path d="M14099 17360 c-39 -11 -85 -48 -99 -78 -26 -58 -31 -384 -27 -1688 4
-1341 5 -1386 39 -1421 26 -25 363 -49 841 -60 190 -4 290 -10 295 -17 3 -6
10 -830 14 -1831 4 -1160 11 -1849 17 -1900 11 -86 27 -116 81 -152 64 -44 80
-21 30 42 -17 21 -28 40 -26 43 3 2 25 -7 50 -22 27 -15 71 -30 113 -35 104
-15 475 -30 1033 -41 278 -5 598 -12 711 -15 l207 -6 6 68 c28 320 31 841 6
950 -24 108 -83 158 -184 155 -34 -1 -144 9 -246 23 -236 32 -387 45 -522 45
l-107 0 -4 1488 c-3 1067 -7 1504 -16 1547 -15 80 -96 242 -167 335 -77 101
-87 129 -82 216 9 135 90 257 208 313 73 34 191 36 261 4 113 -51 181 -158
182 -287 0 -88 -21 -160 -73 -251 -125 -218 -143 -280 -160 -536 -12 -199 -13
-2318 -1 -2499 10 -139 21 -175 64 -196 56 -30 504 -45 701 -25 112 12 126 28
138 158 22 229 2 4410 -22 4694 -10 126 -18 155 -46 181 -48 42 -64 43 -1234
43 l-1115 0 -51 -72 c-52 -72 -67 -111 -54 -134 13 -21 55 -1 119 56 86 77
145 106 139 68 -4 -26 42 -31 337 -37 368 -8 1684 -15 1660 -9 -10 3 -213 18
-450 34 l-430 28 430 -4 c435 -4 551 -12 615 -43 l35 -17 -1 -70 c-1 -38 -6
-1096 -13 -2350 -6 -1254 -14 -2311 -18 -2349 l-5 -68 -47 -21 c-74 -34 -257
-28 -474 16 -92 19 -169 36 -172 39 -2 2 0 656 5 1452 l9 1448 58 64 c153 170
173 209 173 334 0 198 -112 390 -261 445 -81 30 -252 28 -334 -5 -118 -46
-232 -203 -255 -350 -18 -122 15 -238 99 -350 23 -30 58 -87 77 -126 31 -63
37 -85 45 -190 6 -66 13 -754 16 -1537 l5 -1417 82 -71 c44 -40 108 -84 141
-100 113 -53 256 -56 467 -8 122 27 215 28 298 3 36 -11 78 -28 93 -39 32 -21
61 -70 53 -91 -5 -13 -9 -12 -31 2 -14 9 -25 15 -25 13 -1 -2 -2 -121 -4 -264
-2 -179 -8 -299 -20 -384 -21 -148 -27 -164 -63 -188 -25 -17 -64 -18 -588
-17 -505 0 -1094 15 -1265 33 l-65 6 -6 165 c-3 91 -7 766 -8 1500 -2 1316
-10 1854 -31 1999 -14 97 -40 155 -79 175 -37 19 -326 35 -661 36 -325 2 -435
11 -463 38 l-21 22 21 0 c11 0 24 8 28 18 16 39 24 560 24 1482 0 536 -4 1059
-8 1163 -8 206 -16 234 -53 185 -26 -36 -38 -35 -38 3 0 70 56 131 152 165 44
15 60 12 51 -11 -3 -8 -4 -15 -2 -16 58 -17 2276 -11 2702 7 141 6 167 9 162
22 -8 21 77 7 135 -23 100 -53 210 -152 210 -191 0 -13 -19 -44 -42 -71 -24
-27 -57 -66 -73 -87 -23 -28 -42 -40 -75 -48 -27 -6 -512 -13 -1210 -18 -1122
-8 -1300 -13 -1351 -40 -48 -26 -56 -89 -78 -610 -12 -274 -19 -306 -95 -416
-64 -95 -115 -194 -147 -289 -32 -95 -33 -216 0 -297 122 -310 515 -385 755
-144 156 156 159 262 19 626 -24 63 -69 169 -100 234 -53 111 -57 126 -61 206
-4 76 -1 95 28 178 34 97 36 140 4 83 -42 -76 -80 -126 -94 -126 -8 0 -21 14
-29 30 l-15 30 -8 -30 c-13 -43 -1 -193 22 -283 27 -109 71 -209 145 -338 88
-150 98 -180 99 -294 0 -75 -3 -102 -18 -130 -26 -48 -153 -172 -198 -193 -50
-23 -170 -23 -223 2 -54 24 -183 155 -219 221 -62 115 -35 203 145 471 l104
154 6 295 c5 212 11 317 23 375 9 44 16 90 16 103 0 40 -21 23 -47 -38 -28
-64 -37 -72 -46 -40 -9 34 34 103 78 125 39 20 67 20 1155 27 680 4 1158 10
1226 17 152 15 210 34 256 82 64 67 73 92 73 204 0 89 -3 107 -28 160 -16 33
-40 73 -55 88 -58 61 -38 59 -632 68 -695 10 -2587 10 -2621 -1z"/>
<path d="M18717 17350 c-60 -4 -113 -12 -118 -17 -11 -11 -62 -209 -149 -573
-59 -248 -170 -733 -170 -744 0 -16 32 1 134 71 167 115 523 383 589 443 72
65 84 88 117 220 l26 105 150 5 c145 5 150 6 209 38 98 53 585 413 585 432 0
4 -10 11 -22 15 -30 11 -1213 15 -1351 5z"/>
<path d="M4222 17254 c-88 -44 -189 -174 -276 -354 -83 -172 -99 -277 -117
-760 -14 -373 -19 -5983 -6 -6175 l9 -120 271 -273 c282 -283 419 -410 483
-446 23 -13 38 -29 39 -42 4 -55 263 -305 300 -290 8 3 11 -2 8 -15 -6 -23 19
-64 49 -80 18 -10 20 -9 15 6 -10 24 55 -29 128 -106 81 -85 107 -123 98 -145
-5 -13 -3 -16 9 -12 27 11 79 -30 229 -181 92 -91 153 -161 163 -185 21 -50
312 -341 391 -391 37 -24 179 -155 375 -350 307 -304 374 -364 388 -351 17 17
-55 113 -183 246 -76 80 -651 658 -1275 1285 -625 627 -1168 1176 -1206 1220
-88 102 -131 163 -150 217 -38 107 -39 231 -37 2943 2 2550 11 3479 33 3654
11 88 55 216 109 318 17 32 31 61 31 66 0 15 -38 6 -66 -15 l-28 -22 25 43
c34 61 82 93 199 130 55 18 107 39 115 47 21 22 19 83 -5 122 -16 26 -26 32
-52 32 -18 0 -48 -8 -66 -16z"/>
<path d="M6180 17184 c-329 -36 -531 -66 -573 -85 -14 -6 -29 -19 -32 -28 -12
-31 -24 -1212 -25 -2346 l0 -1150 -89 -161 c-108 -195 -121 -231 -121 -333 0
-147 68 -291 174 -371 68 -51 126 -72 203 -73 52 -1 74 5 137 37 157 77 266
223 274 365 5 90 -17 153 -140 391 l-101 195 -13 305 c-15 379 -17 636 -4 850
6 91 15 548 20 1015 6 468 13 874 17 903 7 62 17 70 128 95 135 32 191 39 345
44 184 6 280 -10 505 -84 280 -93 515 -233 733 -437 272 -255 419 -452 488
-656 30 -88 26 -255 -11 -400 -28 -108 -30 -127 -29 -315 0 -181 2 -211 26
-311 31 -133 68 -223 148 -367 122 -219 245 -383 282 -374 12 4 35 -9 66 -35
55 -48 742 -708 887 -852 170 -170 -102 80 -504 463 -300 286 -435 405 -440
390 -5 -16 123 -143 559 -557 668 -633 879 -853 939 -982 24 -50 26 -66 26
-185 0 -152 -3 -161 -114 -333 -97 -151 -106 -177 -105 -292 2 -159 47 -274
141 -360 74 -68 144 -93 249 -88 68 3 91 8 155 40 184 91 298 314 244 479 -26
81 -98 214 -165 304 -95 128 -95 127 -69 258 33 171 17 291 -57 441 -61 122
-120 187 -363 401 -128 112 -1032 1021 -1244 1250 -141 152 -163 181 -211 275
-30 58 -80 168 -111 245 -32 77 -61 147 -67 155 -15 25 1 -127 22 -207 27 -99
109 -288 182 -415 57 -101 154 -225 166 -214 3 3 -1 13 -9 22 -13 16 -12 16 6
6 63 -33 514 -464 458 -437 -43 20 -59 20 -42 -2 8 -9 109 -97 224 -196 280
-239 436 -387 558 -526 56 -64 135 -152 177 -196 64 -68 86 -102 145 -218 38
-76 83 -152 99 -168 41 -40 42 -100 3 -157 -34 -48 -36 -124 -8 -234 28 -108
70 -185 134 -246 56 -52 56 -53 63 -125 16 -179 -57 -342 -181 -402 -58 -28
-147 -26 -210 5 -66 32 -152 120 -183 189 -54 118 -20 236 114 396 114 137
147 243 126 404 -17 121 -46 210 -92 278 -51 77 -341 380 -699 730 -339 332
-809 816 -937 966 -187 219 -278 470 -273 754 2 73 0 136 -4 139 -4 4 -14 -1
-23 -12 -29 -36 -8 80 30 164 81 179 88 330 20 411 -13 16 -32 54 -40 83 -21
72 -141 302 -219 418 -200 301 -488 531 -847 676 -462 186 -846 213 -1177 81
-65 -26 -94 -63 -111 -139 -26 -123 -31 -411 -33 -1728 -2 -1264 -1 -1370 15
-1427 23 -81 67 -169 135 -267 75 -107 96 -158 97 -231 1 -78 -35 -157 -101
-223 -68 -67 -113 -87 -198 -87 -87 0 -144 27 -221 103 -70 68 -98 122 -97
188 0 60 21 108 121 283 83 144 132 263 132 321 0 41 -1 41 -32 38 -31 -3 -33
-1 -36 33 -2 28 3 44 24 69 15 17 32 53 37 79 24 125 16 2891 -9 3029 -5 25
-11 32 -30 32 -33 0 -32 34 2 57 21 13 63 18 218 24 262 10 517 58 644 121 51
25 66 62 27 64 -11 1 -157 -13 -325 -32z"/>
<path d="M4294 16960 c-21 -8 -22 -14 -28 -302 -3 -161 -8 -1132 -10 -2158 -3
-1026 -10 -2154 -17 -2508 -6 -353 -8 -672 -4 -709 6 -61 8 -65 19 -44 12 21
16 14 49 -88 65 -200 147 -302 691 -860 422 -433 428 -441 64 -86 -487 474
-583 579 -718 780 -38 57 -74 106 -80 110 -36 23 28 -111 99 -205 113 -149
504 -552 1810 -1863 619 -621 830 -827 784 -762 -12 17 -115 127 -229 245
-113 118 -220 233 -238 255 l-31 40 50 -42 c63 -52 495 -489 557 -563 60 -71
98 -144 98 -187 0 -20 -4 -32 -10 -28 -5 3 -11 5 -12 3 -1 -2 -5 -644 -8
-1428 -5 -1471 -5 -1468 -43 -1492 -7 -4 -60 -8 -119 -8 l-107 0 -3 858 c-3
767 -5 862 -20 905 -21 63 -44 87 -81 87 -28 0 -29 -2 -23 -33 16 -84 25 -490
25 -1096 l1 -663 50 -58 c97 -112 184 -147 250 -100 28 20 28 20 33 0 13 -52
105 12 127 88 27 92 32 421 26 1512 -7 1161 -15 1471 -40 1555 -23 74 -137
197 -896 955 -828 828 -1419 1440 -1734 1795 -134 151 -156 183 -167 242 -21
110 -29 528 -39 1983 -19 2878 -31 3881 -49 3879 -3 0 -16 -4 -27 -9z"/>
<path d="M6882 16094 c-72 -19 -107 -39 -163 -91 -100 -94 -151 -207 -152
-343 -1 -110 17 -164 97 -284 168 -250 201 -480 157 -1073 -12 -155 -21 -369
-21 -476 0 -282 25 -404 109 -535 95 -147 498 -567 1721 -1795 900 -904 1147
-1146 1179 -1152 28 -5 41 -14 41 -27 0 -7 -5 -6 -15 2 -8 6 -18 9 -24 6 -15
-10 0 -47 25 -58 27 -13 31 -27 45 -160 5 -57 15 -121 20 -143 45 -170 213
-312 383 -323 228 -14 448 169 464 387 9 125 -43 256 -135 342 -68 63 -138
100 -293 154 -144 50 -227 89 -300 138 -84 58 -1283 1265 -2211 2227 -552 572
-627 656 -650 728 -8 25 -14 214 -20 592 -4 305 -12 571 -16 590 -11 43 -39
52 -52 17 -31 -81 -41 -537 -21 -938 18 -357 42 -439 173 -589 73 -83 339
-340 352 -340 4 0 -13 23 -37 51 -23 28 -52 63 -63 77 l-20 27 35 -24 c48 -34
1040 -1026 1040 -1041 0 -12 -34 18 -232 200 -213 197 -12 -13 634 -660 359
-361 754 -751 878 -869 197 -186 235 -217 305 -252 59 -29 101 -42 158 -49 46
-6 105 -22 145 -39 37 -16 69 -28 71 -25 3 2 -6 18 -19 36 l-23 31 46 -32 c66
-45 120 -119 66 -91 -11 7 -23 9 -26 6 -11 -11 20 -36 44 -36 22 0 24 -3 18
-30 -6 -26 -4 -30 14 -30 24 0 51 -46 50 -87 l0 -28 -16 23 c-24 35 -32 26
-26 -31 13 -124 -63 -246 -170 -276 -130 -37 -270 11 -380 129 -66 71 -127
172 -127 209 0 14 -9 25 -26 31 -33 13 -26 36 9 32 23 -3 27 0 27 21 0 14 -18
61 -41 106 -36 72 -64 106 -242 291 -111 115 -652 656 -1202 1203 -954 948
-1278 1279 -1381 1412 -62 81 -129 221 -156 330 -19 80 -22 117 -22 320 -1
127 5 354 13 506 16 311 11 534 -14 624 -20 73 -81 202 -129 273 -51 74 -56
88 -81 263 -25 171 -22 225 15 300 51 101 135 159 241 167 117 8 197 -35 285
-154 30 -41 60 -74 65 -74 32 0 -45 161 -112 235 -39 42 -62 58 -102 70 -62
18 -135 18 -205 -1z"/>
<path d="M22334 15774 c-886 -649 -1124 -833 -1124 -870 0 -34 212 -2 404 60
182 60 312 133 464 260 120 101 229 224 415 470 84 110 177 228 208 261 54 57
107 140 97 150 -3 3 -211 -146 -464 -331z"/>
<path d="M8342 15578 c-7 -7 -12 -28 -12 -48 0 -41 14 -60 45 -60 52 0 201
-126 470 -395 99 -100 204 -210 234 -246 30 -35 -73 63 -227 219 -154 155
-286 282 -292 282 -22 0 33 -60 629 -690 1198 -1265 2572 -2682 2579 -2660 2
6 -2 19 -10 28 -19 21 -31 42 -25 42 3 0 41 -54 86 -119 95 -138 158 -201 234
-235 58 -26 77 -44 57 -56 -41 -26 54 -93 125 -88 49 4 58 28 20 61 -14 12
-168 173 -343 357 -883 932 -1064 1122 -1387 1460 -1747 1826 -1977 2059
-2103 2132 -53 31 -63 33 -80 16z"/>
<path d="M14165 13960 c-135 -10 -162 -16 -169 -43 -12 -47 -26 -984 -36
-2407 -6 -817 -15 -1562 -20 -1657 -12 -194 -23 -270 -79 -503 l-39 -165 78
-80 c136 -141 132 -176 -9 -85 -34 22 -61 36 -61 32 0 -19 88 -94 137 -118 88
-43 215 -46 1753 -41 l1405 5 85 51 c82 49 120 62 120 41 0 -6 -27 -29 -59
-53 -33 -23 -60 -46 -60 -51 -1 -13 107 0 125 15 53 44 65 173 53 574 -13 452
-16 468 -93 543 l-51 51 -1090 7 -1090 7 -32 34 c-36 38 -51 90 -33 122 19 36
29 851 30 2306 l0 1341 -62 32 c-45 22 -87 34 -148 42 -93 11 -497 11 -655 0z
m775 -1867 c0 -984 5 -1841 10 -1905 13 -173 33 -200 160 -218 47 -7 466 -14
1117 -19 960 -7 1044 -9 1068 -25 35 -23 42 -44 20 -60 -17 -12 -19 -45 -26
-398 -5 -212 -13 -396 -18 -411 -21 -55 -125 -64 -866 -78 -677 -12 -2016 -6
-2190 11 -122 12 -185 35 -219 83 -27 37 -25 132 8 432 46 419 71 815 87 1380
13 449 18 2879 7 2891 -5 4 -16 0 -26 -9 -23 -21 -46 -22 -62 -2 -10 12 -9 20
4 40 44 67 85 72 559 74 l367 1 0 -1787z"/>
<path d="M11405 11816 c-27 -7 -64 -20 -82 -29 -63 -33 -171 -182 -214 -296
-58 -153 42 -340 232 -435 176 -88 257 -75 515 84 229 141 426 171 448 68 17
-80 25 -647 26 -1898 0 -740 5 -1458 10 -1596 9 -262 15 -300 58 -337 20 -18
77 -19 1284 -28 1526 -10 3272 -11 3387 -2 58 4 78 9 64 14 -30 11 -681 27
-1423 35 -349 4 -716 10 -815 14 -105 4 212 7 760 8 929 1 1420 -7 1523 -28
85 -16 177 -88 142 -110 -23 -14 -29 -361 -23 -1370 5 -946 -3 -1325 -32
-1420 -24 -78 -45 -116 -154 -282 l-96 -148 -1235 0 c-679 0 -1285 4 -1347 10
-114 9 -153 21 -187 59 -11 12 -42 28 -69 36 -60 18 -148 84 -307 229 -63 58
-116 103 -119 100 -7 -7 207 -221 319 -318 52 -46 146 -124 208 -174 l114 -92
1328 0 1328 0 64 72 c105 118 147 189 227 382 l41 98 -1 1017 c0 1066 -11
1790 -28 1854 -5 22 -22 60 -38 85 l-29 47 -2029 6 c-1117 3 -2178 10 -2359
14 l-330 7 -27 28 c-56 55 -66 152 -79 735 -5 259 -14 1011 -20 1673 l-9 1202
-63 92 c-119 175 -177 179 -478 38 -178 -84 -261 -110 -367 -117 -75 -5 -87
-3 -138 22 -63 30 -123 97 -161 180 -82 175 80 396 290 397 90 0 147 -22 287
-112 166 -107 249 -134 249 -81 0 25 -28 43 -100 66 -30 10 -68 24 -85 33 -40
20 -127 83 -122 89 3 2 33 -5 67 -17 43 -14 66 -18 73 -11 22 22 -66 83 -155
107 -65 17 -254 17 -323 0z"/>
<path d="M12576 11119 c-49 -39 -26 -85 61 -119 73 -29 137 -68 152 -93 8 -11
8 -16 2 -12 -6 3 -11 1 -11 -6 0 -6 152 -165 338 -353 393 -397 448 -465 486
-613 22 -83 26 -156 34 -525 7 -328 12 -357 47 -328 11 9 15 35 16 104 1 50 5
102 9 116 4 14 8 19 9 13 2 -21 29 -15 42 9 6 11 14 58 16 102 7 107 -16 237
-63 357 -20 52 -47 130 -59 174 -45 161 -95 258 -172 332 -32 31 -43 50 -43
72 0 16 -5 42 -10 57 -16 42 -129 153 -350 343 -113 97 -248 217 -301 267 -86
83 -142 124 -167 124 -5 0 -21 -9 -36 -21z"/>
<path d="M3855 9505 c-18 -17 -25 -35 -25 -64 0 -50 18 -68 78 -76 129 -17
195 -46 186 -83 -8 -30 331 -388 1331 -1407 790 -804 979 -999 1051 -1088 l64
-79 1 -131 c0 -73 6 -490 13 -928 l12 -796 39 -34 c113 -100 193 -120 300 -75
44 19 44 31 0 46 -39 13 -44 24 -16 40 51 27 102 6 178 -72 86 -88 155 -210
109 -192 -20 8 -25 -32 -32 -257 -9 -270 0 -306 66 -259 38 27 46 21 27 -17
-24 -46 -75 -77 -127 -78 -44 0 -45 1 -42 29 3 27 2 28 -30 22 -115 -21 -483
-28 -1473 -28 -1158 0 -1502 9 -1571 38 l-40 18 -13 1031 c-7 566 -12 1293
-10 1615 l2 585 -28 -3 c-18 -2 -34 3 -41 13 -10 14 -12 13 -17 -7 -28 -116
-32 -312 -32 -1810 0 -845 4 -1540 8 -1545 12 -11 3204 -16 3345 -5 62 5 114
11 117 13 6 7 -23 536 -35 611 -21 142 -99 282 -179 325 -56 29 -132 30 -218
3 -35 -11 -71 -17 -80 -13 -10 4 -45 29 -77 57 l-59 51 6 240 c33 1235 31
1449 -12 1566 -44 116 -211 297 -1081 1173 -625 629 -1346 1339 -1531 1507
-57 52 -107 89 -119 89 -12 0 -32 -11 -45 -25z"/>
<path d="M12618 9414 c-5 -4 -8 -23 -8 -42 0 -30 -2 -33 -15 -22 -9 7 -18 10
-22 7 -23 -23 -28 -1362 -6 -1457 11 -45 42 -48 56 -5 6 18 12 288 14 660 4
597 -3 876 -19 859z"/>
<path d="M3846 9242 c-27 -45 -47 -543 -35 -907 11 -340 27 -443 84 -526 34
-48 89 -91 108 -83 19 7 522 -491 562 -556 15 -25 184 -202 374 -395 533 -539
523 -519 525 -1089 1 -335 1 -342 24 -388 24 -48 92 -118 115 -118 29 0 46
-39 66 -151 18 -95 20 -126 11 -164 -32 -144 -150 -247 -285 -249 -149 -2
-275 142 -275 315 0 80 22 138 91 246 104 162 149 276 115 295 -25 14 -19 53
21 142 36 77 38 86 37 181 -1 85 -6 114 -33 195 -34 102 -72 175 -130 255
-194 268 -1088 1190 -1273 1312 -88 59 -151 -48 -77 -132 37 -42 51 -43 78 -9
20 25 21 25 21 6 0 -14 11 -27 29 -37 17 -8 58 -38 93 -67 81 -67 400 -380
393 -386 -7 -7 -69 46 -236 200 -166 154 -191 173 -133 103 63 -76 300 -303
479 -461 437 -385 622 -671 654 -1015 11 -114 0 -257 -23 -312 -8 -21 -39 -77
-69 -125 -141 -230 -193 -357 -184 -454 13 -145 131 -295 269 -344 216 -76
440 1 529 181 79 161 36 350 -140 608 -38 56 -74 115 -80 130 -14 36 -14 171
-1 386 13 202 6 257 -49 380 -88 200 -160 285 -754 892 -672 687 -758 782
-792 879 -26 74 -35 259 -34 747 0 257 -2 475 -6 485 -4 9 -14 19 -23 22 -9 3
-22 8 -29 12 -6 3 -14 1 -17 -4z"/>
<path d="M13640 8951 c-17 -33 -12 -119 11 -172 36 -83 91 -103 321 -119 296
-20 2928 -7 3120 16 46 5 58 10 60 26 3 18 7 17 67 -13 61 -30 141 -98 141
-118 0 -5 -12 -11 -27 -13 -22 -2 -29 -10 -35 -38 -4 -19 -12 -188 -18 -375
-6 -187 -14 -364 -18 -395 l-7 -55 -520 -7 c-1048 -15 -3979 -25 -4010 -15
-16 6 -56 28 -87 49 -74 50 -88 49 -88 -2 0 -80 47 -95 356 -110 276 -13 3203
-23 3789 -13 l480 9 50 36 c53 38 127 78 145 78 22 0 8 -28 -40 -75 -27 -27
-50 -53 -50 -57 0 -4 32 -8 70 -8 l70 0 0 223 c-1 478 -39 880 -89 931 -13 13
-43 21 -98 28 -43 5 -757 13 -1588 17 -1088 6 -1538 12 -1610 21 -133 16 -196
41 -248 97 -67 71 -126 93 -147 54z"/>
</g>
</svg>
